<mxfile host="app.diagrams.net" modified="2023-10-01T19:57:30.453Z" agent="Mozilla/5.0 (Windows NT 10.0; Win64; x64) AppleWebKit/537.36 (KHTML, like Gecko) Chrome/117.0.0.0 Safari/537.36" version="21.8.2" etag="Cank8i8IUgqpxhBruPkp" type="github">
  <diagram name="PÃ¡gina-1" id="MZHT3lawYvHVlHnLGH1P">
    <mxGraphModel>
      <root>
        <mxCell id="0" />
        <mxCell id="1" parent="0" />
      </root>
    </mxGraphModel>
  </diagram>
</mxfile>
